<svg xmlns="http://www.w3.org/2000/svg" width="512" height="512" viewBox="0 0 120 120" role="img" aria-label="Blindr">
  <rect width="120" height="120" rx="27" fill="#5C1A2B"></rect>
  <path d="M40 74 L40 92 L60 92 L60 70 Z" fill="#F5EFE3"></path>
  <circle cx="48" cy="50" r="19" fill="#F5EFE3"></circle>
  <path d="M66 46 L74 51 L66 56 Z" fill="#F5EFE3"></path>
  <rect x="27" y="42" width="40" height="8.5" rx="2.5" fill="#C3A25B"></rect>
  <ellipse cx="28" cy="46.2" rx="5" ry="5.3" fill="#B78E42"></ellipse>
  <path d="M24 43 L14 39 L18 47 Z" fill="#C3A25B"></path>
  <path d="M24 50 L14 55 L19 49 Z" fill="#C3A25B"></path>
  <g transform="rotate(-66 66 56)" fill="none" stroke="#C3A25B" stroke-width="3" stroke-linecap="round" stroke-linejoin="round">
    <path d="M56 56 C55 67 62 73 66 73 C70 73 77 67 76 56 Z"></path>
    <line x1="66" y1="73" x2="66" y2="88"></line>
    <line x1="59" y1="89" x2="73" y2="89"></line>
  </g>
</svg>
